<?xml version="1.0" encoding="UTF-8" standalone="no"?>
<svg width="1203px" height="699px" viewBox="0 0 1203 699" version="1.1" xmlns="http://www.w3.org/2000/svg" xmlns:xlink="http://www.w3.org/1999/xlink" xmlns:sketch="http://www.bohemiancoding.com/sketch/ns">
    <!-- Generator: Sketch 3.5 (25232) - http://www.bohemiancoding.com/sketch -->
    <title>rocket</title>
    <desc>Created with Sketch.</desc>
    <defs></defs>
    <g id="Page-1" stroke="none" stroke-width="1" fill="none" fill-rule="evenodd" sketch:type="MSPage">
        <g id="rocket" sketch:type="MSLayerGroup">
            <rect id="Rectangle-path" fill="#000E30" sketch:type="MSShapeGroup" x="1" y="0" width="1200" height="698.5"></rect>
            <g id="centerRightMountains" transform="translate(351.000000, 385.000000)" sketch:type="MSShapeGroup">
                <path d="M235.6,137.9 L234.7,313.5 L491.6,312.6 L392.3,245.5 L416.5,221.3 L297.4,102.2 L261.6,99 L235.6,137.9 Z" id="Shape" fill="#001142"></path>
                <path d="M235.6,137.9 L222.7,106.3 L191.8,125.7 L179.3,96.6 L0.2,275.8 L0.2,312.6 L234.7,313.5" id="Shape" fill="#2B4482"></path>
                <path d="M235.6,137.9 L261.6,99 L297.4,102.2 L292.8,97.5 L235.6,40.4 L235.6,87.7 L235.6,137.9 Z" id="Shape" fill="#D0E9FC"></path>
                <path d="M222.7,106.3 L235.6,137.9 L235.6,87.7 L235.6,40.4 L195.2,80.8 L179.3,96.6 L191.8,125.7 L222.7,106.3 Z" id="Shape" fill="#E3F2FF"></path>
                <path d="M668.7,70.5 L637.5,117.2 L637.5,245.5 L634.9,312.6 L850,312.6 L851.4,214.2 L732.6,95.4 L668.7,70.5 Z" id="Shape" fill="#001142"></path>
                <path d="M634.9,312.6 L637.5,117.2 L622,79.4 L595.8,112 L570,67.8 L416.5,221.3 L324.2,313.5 L634.9,312.6 Z" id="Shape" fill="#2B4482"></path>
                <path d="M637.5,117.2 L668.7,70.5 L732.6,95.4 L706,68.8 L637.5,0.3 L637.5,57 L637.5,117.2 Z" id="Shape" fill="#D0E9FC"></path>
                <path d="M622,79.4 L637.5,117.2 L637.5,57 L637.5,0.3 L589.1,48.7 L570,67.8 L595.8,112 L622,79.4 Z" id="Shape" fill="#E3F2FF"></path>
            </g>
            <g id="cloudsMiddle" transform="translate(305.000000, 559.000000)" sketch:type="MSShapeGroup">
                <path d="M296,4.6 L296,138.8 L576.7,138.8 L296,4.6 Z" id="Shape" fill="#D0E9FC"></path>
                <path d="M285.1,0.3 L0.3,139.5 L295.9,139.5 L295.9,5.4 L285.1,0.3 Z" id="Shape" fill="#E3F2FF"></path>
            </g>
            <g id="moon" transform="translate(907.000000, 43.000000)" sketch:type="MSShapeGroup">
                <g id="Group">
                    <path d="M46.1,92.6 C23.4,92.2 4.7,76.1 0.1,54.8 C0.8,82.9 23.6,105.7 51.9,106.2 L52.2,92.3 C50.2,92.5 48.1,92.6 46.1,92.6 L46.1,92.6 Z" id="Shape" fill="#7895B7"></path>
                    <path d="M73.2,4.6 C86.5,13.3 95.2,28.5 94.8,45.6 C94.3,70 75.8,89.8 52.1,92.3 L51.8,106.2 C81,106.7 105.1,83.5 105.6,54.3 C106.2,32 92.7,12.7 73.2,4.6 L73.2,4.6 Z" id="Shape" fill="#3F67C0"></path>
                    <path d="M46.1,92.6 C48.2,92.6 50.2,92.5 52.3,92.3 L54,0.5 C24.8,-2.20934382e-14 0.7,23.2 0.2,52.4 L0.2,54.8 C4.7,76 23.4,92.1 46.1,92.6 L46.1,92.6 Z" id="Shape" fill="#859FD7"></path>
                    <path d="M46.1,92.6 C48.2,92.6 50.2,92.5 52.3,92.3 L54,0.5 C24.8,-2.20934382e-14 0.7,23.2 0.2,52.4 L0.2,54.8 C4.7,76 23.4,92.1 46.1,92.6 L46.1,92.6 Z" id="Shape" fill="#DFE8F0"></path>
                    <path d="M52.2,92.3 C75.8,89.7 94.4,69.9 94.9,45.6 C95.2,28.5 86.6,13.4 73.3,4.6 C67.3,2.1 60.8,0.7 54,0.6 L52.2,92.3 L52.2,92.3 Z" id="Shape" fill="#7492B5"></path>
                    <path d="M52.2,92.3 C75.8,89.7 94.4,69.9 94.9,45.6 C95.2,28.5 86.6,13.4 73.3,4.6 C67.3,2.1 60.8,0.7 54,0.6 L52.2,92.3 L52.2,92.3 Z" id="Shape" fill="#7895B7"></path>
                </g>
                <g id="Group" transform="translate(30.000000, 20.000000)">
                    <path d="M3.2,8 C3.3,5.1 5.7,2.7 8.6,2.8 C11,2.8 13,4.5 13.6,6.7 C13.6,3.2 10.8,0.3 7.2,0.2 C3.6,0.1 0.6,3 0.6,6.6 C0.5,10.2 3.3,13.1 6.9,13.2 C4.7,12.5 3.2,10.4 3.2,8 L3.2,8 Z" id="Shape" fill="#859FD7"></path>
                    <path d="M13.7,6.8 L13.7,6.7 C13.1,4.5 11.1,2.9 8.7,2.8 C5.8,2.7 3.3,5.1 3.3,8 C3.3,10.4 4.8,12.5 7,13.2 L7.1,13.2 C10.7,13.3 13.6,10.4 13.7,6.8 L13.7,6.8 Z" id="Shape" fill="#DAE4EE"></path>
                </g>
                <g id="Group" transform="translate(11.000000, 49.000000)">
                    <path d="M5.4,14.9 C5.5,9.5 9.9,5.3 15.3,5.4 C19.7,5.5 23.3,8.5 24.5,12.5 C24.5,6.1 19.3,0.8 12.9,0.7 C6.4,0.6 0.9,5.8 0.8,12.3 C0.7,18.8 5.8,24.1 12.2,24.4 C8.1,23 5.3,19.3 5.4,14.9 L5.4,14.9 Z" id="Shape" fill="#859FD7"></path>
                    <path d="M24.4,12.7 L24.4,12.5 C23.3,8.5 19.6,5.5 15.2,5.4 C9.8,5.3 5.4,9.6 5.3,14.9 C5.2,19.3 8.1,23 12,24.3 L12.2,24.3 C18.9,24.4 24.3,19.2 24.4,12.7 L24.4,12.7 Z" id="Shape" fill="#DAE4EE"></path>
                </g>
                <g id="Group" transform="translate(35.000000, 86.000000)">
                    <path d="M3.5,8.7 C3.6,5.8 6,3.4 8.9,3.5 C11.3,3.5 13.3,5.2 13.9,7.4 C13.9,3.9 11.1,1 7.5,0.9 C3.9,0.8 0.9,3.7 0.9,7.3 C0.8,10.9 3.6,13.8 7.2,13.9 C5,13.2 3.5,11.1 3.5,8.7 L3.5,8.7 Z" id="Shape" fill="#213256"></path>
                    <path d="M14,7.5 L14,7.4 C13.4,5.2 11.4,3.6 9,3.5 C6.1,3.4 3.6,5.8 3.6,8.7 C3.6,11.1 5.1,13.2 7.3,13.9 L7.4,13.9 C10.9,14 13.9,11.1 14,7.5 L14,7.5 Z" id="Shape" fill="#859FD7"></path>
                </g>
                <g id="Group" transform="translate(69.000000, 19.000000)">
                    <path d="M2.7,5.4 C2.7,3.4 4.4,1.8 6.4,1.8 C8.1,1.8 9.4,3 9.9,4.5 C9.9,2.1 7.9,0.1 5.5,0 C3,0 1,1.9 0.9,4.4 C0.9,6.8 2.8,8.9 5.2,9 C3.7,8.5 2.6,7 2.7,5.4 L2.7,5.4 Z" id="Shape" fill="#3B64BE"></path>
                    <path d="M9.9,4.5 L9.9,4.5 C9.5,2.9 8.1,1.8 6.4,1.7 C4.4,1.7 2.7,3.3 2.7,5.3 C2.7,7 3.7,8.4 5.2,8.9 L5.3,8.9 C7.8,9 9.8,7 9.9,4.5 L9.9,4.5 Z" id="Shape" fill="#859FD7"></path>
                </g>
                <g id="Group" transform="translate(49.000000, 41.000000)">
                    <path d="M4.4,13 C4.5,8.4 8.3,4.7 12.9,4.8 C16.7,4.9 19.8,7.4 20.8,10.9 C20.8,5.4 16.4,0.8 10.8,0.7 C5.2,0.6 0.5,5.1 0.4,10.7 C0.3,16.3 4.7,20.8 10.2,21.1 C6.7,20 4.3,16.8 4.4,13 L4.4,13 Z" id="Shape" fill="#3B64BE"></path>
                    <path d="M20.7,11.1 L20.7,10.9 C19.7,7.5 16.6,4.9 12.8,4.8 C8.2,4.7 4.4,8.4 4.3,13 C4.2,16.8 6.7,20 10.1,21.1 L10.3,21.1 C16,21.2 20.6,16.7 20.7,11.1 L20.7,11.1 Z" id="Shape" fill="#859FD7"></path>
                </g>
                <g id="Group" transform="translate(73.000000, 74.000000)">
                    <path d="M3.2,9 C3.3,5.7 6,3 9.4,3.1 C12.1,3.2 14.4,5 15.1,7.5 C15.1,3.5 11.9,0.2 7.8,0.1 C3.7,-1.40443213e-14 0.3,3.3 0.3,7.4 C0.2,11.4 3.4,14.8 7.4,14.9 C4.9,14.1 3.2,11.8 3.2,9 L3.2,9 Z" id="Shape" fill="#213256"></path>
                    <path d="M15.1,7.7 L15.1,7.5 C14.4,5 12.1,3.1 9.4,3.1 C6.1,3 3.3,5.7 3.2,9 C3.2,11.7 4.9,14.1 7.4,14.9 L7.6,14.9 C11.7,15 15,11.7 15.1,7.7 L15.1,7.7 Z" id="Shape" fill="#859FD7"></path>
                </g>
            </g>
            <g id="stars" transform="translate(113.000000, 21.000000)" fill="#FFFFFF" sketch:type="MSShapeGroup">
                <circle id="Oval" cx="705.5" cy="191" r="3.8"></circle>
                <circle id="Oval" cx="278.1" cy="216.8" r="4"></circle>
                <circle id="Oval" cx="174.4" cy="4.3" r="4.3"></circle>
                <circle id="Oval" cx="2.8" cy="37.3" r="2.1"></circle>
                <circle id="Oval" cx="28.9" cy="180.8" r="2.7"></circle>
                <circle id="Oval" cx="13.2" cy="431.1" r="5"></circle>
                <circle id="Oval" cx="191.9" cy="514.3" r="2.9"></circle>
                <circle id="Oval" cx="433" cy="15.6" r="8.8"></circle>
                <circle id="Oval" cx="819.6" cy="413.3" r="4.2"></circle>
                <circle id="Oval" cx="982.8" cy="453.6" r="5.4"></circle>
                <circle id="Oval" cx="940.3" cy="201.7" r="4.8"></circle>
                <circle id="Oval" cx="956.9" cy="32.1" r="5.4"></circle>
                <ellipse id="Oval" cx="318.5" cy="335.7" rx="5.2" ry="5.1"></ellipse>
            </g>
            <g id="leftMountain" transform="translate(0.000000, 416.000000)" sketch:type="MSShapeGroup">
                <path d="M168.4,70.5 L137.2,117.2 L137.2,245.5 L137.2,281.6 L351.2,281.6 L351.2,214.2 L232.4,95.4 L168.4,70.5 Z" id="Shape" fill="#001142"></path>
                <path d="M137.2,281.6 L137.2,117.2 L121.7,79.4 L95.5,112 L69.8,67.8 L0.2,137.3 L2,282.5 L137.2,281.6 Z" id="Shape" fill="#2B4482"></path>
                <path d="M137.2,117.2 L168.4,70.5 L232.4,95.4 L205.7,68.8 L137.2,0.3 L137.2,57 L137.2,117.2 Z" id="Shape" fill="#D0E9FC"></path>
                <path d="M121.7,79.4 L137.2,117.2 L137.2,57 L137.2,0.3 L88.8,48.7 L69.8,67.8 L95.5,112 L121.7,79.4 Z" id="Shape" fill="#E3F2FF"></path>
            </g>
            <g id="smoke" transform="translate(318.000000, 384.000000)" sketch:type="MSShapeGroup">
                <g id="Group" transform="translate(268.000000, 0.000000)">
                    <g transform="translate(0.000000, 49.000000)" id="Rectangle-path">
                        <rect fill="#E3F2FF" x="0.8" y="0.9" width="14.5" height="242.1"></rect>
                        <rect fill="#D0E9FC" x="15.3" y="0.9" width="14.5" height="242.1"></rect>
                    </g>
                    <path d="M15,256.4 L5.2,256.4 L3.5,20.7 L15.3,0.5 L15,256.4 Z" id="Shape" opacity="0.68" fill="#FFCF7B"></path>
                    <path d="M15.5,256.4 L25.4,256.4 L27,20.7 L15.3,0.5 L15.5,256.4 Z" id="Shape" opacity="0.68" fill="#F9BA5D"></path>
                    <path d="M15.2,256.4 L10.7,256.4 L10,7.7 L15.3,0.5 L15.2,256.4 Z" id="Shape" opacity="0.68" fill="#FFCF7B"></path>
                    <path d="M15.4,256.4 L19.8,256.4 L20.6,7.7 L15.3,0.5 L15.4,256.4 Z" id="Shape" opacity="0.68" fill="#F9BA5D"></path>
                </g>
                <g id="Group" transform="translate(0.000000, 114.000000)">
                    <g transform="translate(122.000000, 14.000000)" id="Oval" fill="#E3F2FF">
                        <circle cx="111" cy="76.6" r="28.1"></circle>
                        <circle cx="51.3" cy="92.8" r="17.5"></circle>
                        <circle cx="79.7" cy="83.1" r="22.8"></circle>
                        <circle cx="136.1" cy="78" r="22.8"></circle>
                        <circle cx="23.6" cy="110.2" r="22.8"></circle>
                        <circle cx="145.7" cy="10.2" r="9.6"></circle>
                        <ellipse cx="147.1" cy="27.6" rx="13.2" ry="11.7"></ellipse>
                        <ellipse transform="translate(137.924480, 46.735140) rotate(17.126739) translate(-137.924480, -46.735140) " cx="137.92448" cy="46.73514" rx="15.3007094" ry="13.500626"></ellipse>
                    </g>
                    <g transform="translate(0.000000, 94.000000)" id="Oval" fill="#E3F2FF">
                        <circle cx="113.5" cy="46" r="28.1"></circle>
                        <circle cx="58.8" cy="44.4" r="31.7"></circle>
                        <circle cx="133.2" cy="61.7" r="22.8"></circle>
                        <circle cx="22.8" cy="22.8" r="22.8"></circle>
                        <circle cx="180.3" cy="11.8" r="9.6"></circle>
                        <ellipse transform="translate(171.272830, 26.889090) rotate(35.365175) translate(-171.272830, -26.889090) " cx="171.27283" cy="26.88909" rx="13.2003279" ry="11.7002907"></ellipse>
                        <ellipse transform="translate(152.696990, 37.141920) rotate(52.488352) translate(-152.696990, -37.141920) " cx="152.69699" cy="37.14192" rx="15.2994297" ry="13.4994968"></ellipse>
                    </g>
                    <g transform="translate(282.000000, 0.000000)" id="Oval" fill="#D0E9FC">
                        <circle cx="48.4" cy="90.6" r="28.1"></circle>
                        <circle cx="108" cy="106.8" r="17.5"></circle>
                        <circle cx="79.6" cy="97.1" r="22.8"></circle>
                        <circle cx="23.2" cy="92" r="22.8"></circle>
                        <circle cx="116.9" cy="97.1" r="22.8"></circle>
                        <circle cx="135.7" cy="124.2" r="22.8"></circle>
                        <circle cx="15.8" cy="9.9" r="9.6"></circle>
                        <circle cx="20.3" cy="41.2" r="9.6"></circle>
                        <ellipse cx="15.8" cy="27.3" rx="13.2" ry="11.7"></ellipse>
                        <ellipse transform="translate(23.201610, 54.880970) rotate(162.873261) translate(-23.201610, -54.880970) " cx="23.20161" cy="54.88097" rx="15.3007094" ry="13.500626"></ellipse>
                        <ellipse transform="translate(29.832720, 65.115980) rotate(162.873261) translate(-29.832720, -65.115980) " cx="29.83272" cy="65.11598" rx="15.3007094" ry="13.500626"></ellipse>
                    </g>
                    <g transform="translate(372.000000, 77.000000)" id="Oval" fill="#D0E9FC">
                        <circle cx="86.8" cy="61.6" r="28.1"></circle>
                        <circle cx="143.1" cy="36.2" r="17.5"></circle>
                        <circle cx="115" cy="46.7" r="22.8"></circle>
                        <circle cx="68.3" cy="78.6" r="22.8"></circle>
                        <circle cx="143.8" cy="23" r="22.8"></circle>
                        <circle cx="175.6" cy="32.1" r="22.8"></circle>
                        <circle cx="10.4" cy="19.8" r="9.6"></circle>
                        <circle cx="33.7" cy="41.2" r="9.6"></circle>
                        <ellipse transform="translate(21.426430, 33.289320) rotate(140.611830) translate(-21.426430, -33.289320) " cx="21.42643" cy="33.28932" rx="13.2006043" ry="11.6005311"></ellipse>
                        <ellipse transform="translate(44.695010, 49.869870) rotate(123.485066) translate(-44.695010, -49.869870) " cx="44.69501" cy="49.86987" rx="15.299456" ry="13.49952"></ellipse>
                        <ellipse transform="translate(56.403190, 53.551850) rotate(123.485066) translate(-56.403190, -53.551850) " cx="56.40319" cy="53.55185" rx="15.299456" ry="13.49952"></ellipse>
                    </g>
                </g>
            </g>
            <g id="clouds" transform="translate(1.000000, 582.000000)" fill="#FFFFFF" sketch:type="MSShapeGroup">
                <path d="M951.7,93.9 L951.7,23.6 C944,16.4 933.8,12.1 922.6,12.1 C905.9,12.1 891.4,21.8 884,36.2 C879.7,34 874.8,32.7 869.6,32.7 C861,32.7 853.3,36.1 847.5,41.6 C843.5,39.6 839,38.4 834.2,38.4 C820.6,38.4 809.1,47.6 805.5,60 C801.8,58.3 797.6,57.4 793.2,57.4 C783.9,57.4 775.6,61.7 770.1,68.3 C767,52 753.1,39.2 736.3,37.9 C724.9,37 714.6,41.2 707.1,48.4 C707.6,41.2 703.9,34.1 697.2,30.5 C689.1,26.2 679.4,28.3 673.8,35.1 C672.1,31.6 669.4,28.6 665.7,26.6 C660.8,24 655.4,23.8 650.5,25.5 C648.2,11.5 636,0.8 621.3,0.8 C613.2,0.8 605.9,4 600.5,9.3 C596.1,6.7 590.9,5.1 585.4,5.1 C573.3,5.1 562.9,12.3 558.3,22.7 C554.8,21.1 550.9,20.2 546.8,20.2 C534.9,20.2 524.8,27.7 520.9,38.2 C516.9,37 512.6,36.4 508.2,36.4 C487.7,36.4 470.4,50.1 465,68.8 L460.2,68.8 C454.9,57.9 443.7,50.3 430.8,50.3 C421.3,50.3 412.7,54.4 406.8,60.9 C402.7,49.4 391.7,41.1 378.7,41.1 C373.2,41.1 368,42.6 363.5,45.3 C360.3,44 356.9,43.3 353.3,43.3 C345.7,43.3 338.8,46.4 333.8,51.3 C326,37.8 311.5,28.7 294.8,28.7 C271.6,28.7 252.5,46.3 250.1,68.8 L250,68.8 L250,73.5 L250,116.5 L951.7,116.5 L951.7,93.9 L951.7,93.9 Z M671,56.3 L670.7,56 C670.9,55.7 671.2,55.5 671.4,55.2 C671.5,55.4 671.6,55.6 671.7,55.8 C671.5,56 671.2,56.2 671,56.3 L671,56.3 Z" id="Shape"></path>
                <path d="M1200,27.2 C1179.6,29.3 1162.9,43.7 1157.4,62.8 L1152.1,62.8 C1146.3,50.7 1133.9,42.3 1119.5,42.3 C1109,42.3 1099.5,46.8 1092.9,54 C1088.4,41.2 1076.2,32.1 1061.9,32.1 C1055.8,32.1 1050,33.8 1045.1,36.7 C1041.6,35.3 1037.8,34.5 1033.8,34.5 C1025.4,34.5 1017.8,37.9 1012.3,43.4 C1003.7,28.5 987.6,18.5 969.2,18.5 C943.5,18.5 922.4,37.9 919.8,62.9 L919.5,62.9 L919.5,68.1 L919.5,115.7 L1190,115.7 L1200,115.7" id="Shape"></path>
                <path d="M0,115.6 L10,115.6 L283.6,115.6 L283.6,95 L283.6,31.1 C276.6,24.6 267.3,20.6 257.2,20.6 C242,20.6 228.8,29.5 222.1,42.5 C218.2,40.5 213.7,39.4 209,39.4 C201.2,39.4 194.1,42.5 188.9,47.5 C185.2,45.7 181.1,44.6 176.8,44.6 C164.4,44.6 153.9,52.9 150.7,64.3 C147.3,62.8 143.5,61.9 139.6,61.9 C131.1,61.9 123.6,65.8 118.6,71.9 C115.8,57 103.2,45.4 87.8,44.2 C77.5,43.4 68,47.2 61.3,53.7 C61.7,47.2 58.4,40.7 52.3,37.4 C45,33.5 36.1,35.4 31,41.6 C29.5,38.4 27,35.7 23.6,33.9 C19.2,31.5 14.2,31.3 9.8,32.9 C8.5,26.1 5,20.3 0,16.3 L0,115.6 Z M28.2,60.8 C28.1,60.7 28,60.6 27.9,60.5 C28.1,60.3 28.3,60 28.5,59.8 C28.6,60 28.7,60.2 28.8,60.3 C28.6,60.5 28.4,60.7 28.2,60.8 L28.2,60.8 Z" id="Shape"></path>
            </g>
            <g id="ship" transform="translate(508.000000, 120.000000)" sketch:type="MSShapeGroup">
                <g id="Group">
                    <g transform="translate(93.000000, 0.000000)" id="Shape">
                        <path d="M23.1,46.1 L0.2,46.1 L0.2,236.7 L24.3,236.7 C28.1,208.3 36.9,137.9 37.2,104.5 C37.4,86.7 30.8,65.1 23.1,46.1 L23.1,46.1 Z" fill="#FF3351"></path>
                        <path d="M31.6,46.1 L23.1,46.1 C30.8,65.1 37.4,86.7 37.2,104.5 C36.9,137.9 28.1,208.3 24.3,236.7 L37.2,236.7 L48.6,146.6 C53,111.9 46.9,77.1 31.6,46.1 L31.6,46.1 Z" fill="#D62E40"></path>
                        <path d="M0.3,0.3 L0.3,35.8 L18.8,35.8 C12.3,21.2 5.8,9.1 2.4,2.9 L0.3,0.3 L0.3,0.3 Z" fill="#FF3351"></path>
                        <path d="M9.8,12.1 L2.3,2.9 C5.8,9.1 12.3,21.2 18.7,35.8 L26,35.8 C21.3,27.5 15.9,19.6 9.8,12.1 L9.8,12.1 Z" fill="#D62E40"></path>
                    </g>
                    <g transform="translate(43.000000, 0.000000)">
                        <g>
                            <path d="M18.4,46.1 C3.1,77.1 -3,112 1.4,146.6 L12.8,236.7 L49.8,236.7 L50.3,46.1 L18.4,46.1 L18.4,46.1 Z" id="Shape" fill="#FF475A"></path>
                            <path d="M50.3,46.1 L49.8,236.7 L50.3,236.7 L50.3,46.1 L50.3,46.1 Z" id="Shape" fill="#FF475A"></path>
                            <path d="M50.3,35.7 L50.3,46 L81.6,46 C79.9,42.5 78.1,39.1 76.1,35.7 L50.3,35.7 L50.3,35.7 Z" id="Shape" fill="#C90B26"></path>
                            <path d="M50.3,35.7 L24,35.7 C22,39.1 20.2,42.5 18.5,46 L50.3,46 L50.3,35.7 L50.3,35.7 Z" id="Shape" fill="#D62E40"></path>
                            <rect id="Rectangle-path" fill="#C90B26" x="50.3" y="35.7" width="-0.1" height="10.3"></rect>
                            <path d="M40.2,12.1 C34.1,19.6 28.7,27.6 23.9,35.8 L50.2,35.8 L50.2,0.3 L40.2,12.1 L40.2,12.1 Z" id="Shape" fill="#FF4A65"></path>
                        </g>
                        <g transform="translate(12.000000, 170.000000)" id="Shape">
                            <g transform="translate(37.000000, 0.000000)">
                                <path d="M0.8,91.2 L13.2,91.2 C27.1,91.2 38.3,80.3 38.3,66.9 L38.3,66.7 L0.8,66.7 L0.8,91.2 L0.8,91.2 Z" fill="#FFB93B"></path>
                                <path d="M33.2,0.4 L68.4,26.7 C74.3,31.1 78.5,37.3 80.3,44.3 L92.9,93.4 C94.3,98.8 93.2,107.1 87.5,107.2 L84.2,104.1 C80.8,104.1 77.7,102.3 76.1,99.4 L59.1,66.7 L25.3,66.7 L33.2,0.4 L33.2,0.4 Z" fill="#FF475A"></path>
                                <path d="M32.5,8 L68.5,32 C74.4,36.4 78.6,42.6 80.4,49.6 L93,98.7 C94.4,104.1 90.2,109.3 84.5,109.4 L84.3,109.4 C80.9,109.4 77.8,107.6 76.2,104.7 L59.2,72 L25.4,66.8 L32.5,8 L32.5,8 Z" fill="#C90B26"></path>
                            </g>
                            <path d="M38.3,91.2 L25.9,91.2 C12,91.2 0.8,80.3 0.8,66.9 L0.8,66.7 L38.3,66.7 L38.3,91.2 L38.3,91.2 Z" fill="#FFCE76"></path>
                        </g>
                    </g>
                    <path d="M94.6,72.4 L94.4,72.4 C80.6,72.4 69.5,83.2 69.5,96.5 C69.5,109.8 80.6,120.6 94.4,120.6 L94.6,120.6 C108.2,120.5 119.3,109.8 119.3,96.6 C119.2,83.3 108.2,72.6 94.6,72.4 L94.6,72.4 Z" id="Shape" fill="#D62E40"></path>
                    <g transform="translate(67.000000, 70.000000)" id="Shape">
                        <path d="M25.8,42.5 C15.8,42.5 7.6,34.6 7.6,25 C7.6,15.3 15.7,7.5 25.8,7.5 L26,7.5 L26,1 L25.8,1 C12,1 0.9,11.8 0.9,25.1 C0.9,38.4 12,49.2 25.8,49.2 L26,49.2 L26,42.7 C25.9,42.5 25.8,42.5 25.8,42.5 L25.8,42.5 Z" fill="#B70404"></path>
                        <path d="M50.7,24.9 C50.7,11.7 39.7,1 26,0.9 L26,7.4 C35.9,7.5 43.9,15.3 43.9,24.9 C43.9,34.5 35.9,42.3 26,42.4 L26,48.9 C39.6,48.8 50.7,38.1 50.7,24.9 L50.7,24.9 Z" fill="#C90B26"></path>
                        <path d="M7.6,24.9 C7.6,34.6 15.7,42.4 25.8,42.4 L26,42.4 L26,7.3 L25.8,7.3 C15.7,7.4 7.6,15.2 7.6,24.9 L7.6,24.9 Z" fill="#001142"></path>
                        <path d="M43.9,24.9 C43.9,15.3 35.9,7.5 26,7.4 L26,42.5 C35.9,42.3 43.9,34.5 43.9,24.9 L43.9,24.9 Z" fill="#092159"></path>
                    </g>
                    <circle id="Oval" fill="#F1F2F2" cx="84.6" cy="88.5" r="2.3"></circle>
                    <g transform="translate(51.000000, 17.000000)" id="Shape" fill="#FF6178">
                        <path d="M9,222.1 C9,222.1 7.5,207.8 5.6,186.4 C4.7,175.7 3.6,163.2 2.7,149.8 C2.2,143.1 1.8,136.2 1.4,129.1 C1,122.1 0.7,114.9 0.5,107.7 C0.3,100.5 0.2,93.3 0.3,86.2 C0.4,84.3 0.4,82.7 0.6,80.9 C0.8,79.1 1,77.3 1.2,75.6 C1.7,72.1 2.4,68.7 3.2,65.4 C6.5,52.2 11.7,40.6 16.6,31.1 C21.6,21.6 26.5,14 30,8.9 C33.6,3.7 35.8,0.9 35.8,0.9 C35.8,0.9 33.7,3.8 30.3,9 C27,14.3 22.4,22 17.7,31.6 C13.1,41.2 8.4,52.9 5.6,65.9 C4.9,69.1 4.4,72.5 4,75.8 C3.8,77.5 3.7,79.2 3.6,80.9 C3.5,82.6 3.5,84.4 3.5,86.1 C3.6,93.1 3.9,100.2 4.4,107.3 C4.8,114.4 5.4,121.5 6,128.5 C6.6,135.5 7.3,142.4 8,149.1 C9.4,162.4 10.8,174.9 12.1,185.5 C14.7,206.8 16.6,220.9 16.6,220.9 L9,222.1 L9,222.1 Z"></path>
                    </g>
                    <path d="M60.8,170.4 L25.6,196.7 C19.7,201.1 15.5,207.3 13.7,214.3 L1,263.4 C-0.4,268.8 -0.9,277.1 4.9,277.2 L9.7,274.1 C13.1,274.1 16.2,272.3 17.8,269.4 L34.8,236.7 L68.1,236.6 L60.8,170.4 L60.8,170.4 Z" id="Shape" fill="#FF3351"></path>
                    <path d="M61.5,176.8 L25.6,203.1 C19.7,207.5 15.5,213.7 13.7,220.7 L1,269.8 C-0.4,275.2 3.8,280.4 9.5,280.5 L9.7,280.5 C13.1,280.5 16.2,278.7 17.8,275.8 L34.8,243.1 L68.1,236.6 L61.5,176.8 L61.5,176.8 Z" id="Shape" fill="#D62E40"></path>
                </g>
                <path d="M61.5,176.8 L118.3,233.6 L117.3,236.7 L68.1,236.6 L61.5,176.8 Z" id="Shape" opacity="0.15" fill="#D62E40"></path>
                <path d="M93.3,343.2 L93.3,270 L93,270 C81.9,270 72.8,282.5 73,299.2 C73.2,317 93.3,343.2 93.3,343.2 L93.3,343.2 Z" id="Shape" fill="#FF3636"></path>
                <path d="M93.3,343.2 L93.3,270 L93.5,270 C104.6,270 113.7,282.5 113.5,299.2 C113.3,317 93.3,343.2 93.3,343.2 L93.3,343.2 Z" id="Shape" fill="#FF2929"></path>
                <path d="M92.7,321.6 L93.3,322.1 L93.3,272.1 L93.2,272.1 C85.6,272.1 79.5,280.9 79.5,291.8 L79.5,292 C80.9,304.1 85.7,314.7 92.7,321.6 L92.7,321.6 Z" id="Shape" fill="#FFCF7B"></path>
                <path d="M93.8,321.6 L93.2,322.1 L93.2,305.3 L93.2,272.1 L93.3,272.1 C100.9,272.1 107,280.9 107,291.8 L107,292 C105.6,304.1 100.8,314.7 93.8,321.6 L93.8,321.6 Z" id="Shape" fill="#FFC95C"></path>
                <path d="M86.9,280.9 L86.9,280.3 C87.1,276.6 89.5,273.4 93,272.2 L93.1,272.2 L93.1,303.6 L93,303.5 C88.7,296.8 86.5,288.9 86.9,280.9 L86.9,280.9 Z" id="Shape" fill="#FFC95C"></path>
                <path d="M99.3,280.9 L99.3,280.3 C99.1,276.6 96.7,273.4 93.2,272.2 L93.1,272.2 L93.1,303.6 L93.2,303.5 C97.5,296.8 99.7,288.9 99.3,280.9 L99.3,280.9 Z" id="Shape" fill="#FFC95C"></path>
            </g>
        </g>
    </g>
</svg>